<svg xmlns="http://www.w3.org/2000/svg" version="1.1" xmlns:xlink="http://www.w3.org/1999/xlink" xmlns:svgjs="http://svgjs.com/svgjs" width="1440" height="560" preserveAspectRatio="none" viewBox="0 0 1440 560"><g mask="url(&quot;#SvgjsMask1000&quot;)" fill="none"><rect width="1440" height="560" x="0" y="0" fill="#0e2a47"></rect><path d="M314.579,604.393C358.012,602.872,390.754,569.577,412.152,531.75C433.149,494.63,444.164,449.845,422.92,412.866C401.613,375.776,357.339,360.78,314.579,361.901C273.909,362.967,237.136,383.753,215.648,418.299C192.768,455.082,184.07,500.777,204.404,539.026C225.888,579.438,268.839,605.995,314.579,604.393" fill="rgba(28, 83, 142, 0.4)" class="triangle-float3"></path><path d="M1349.9231701500014 378.36615256647025L1252.881753636279 429.84542030340884 1333.416512408067 482.1453041661378z" fill="rgba(28, 83, 142, 0.4)" class="triangle-float1"></path><path d="M1163.845,571.33C1194.426,573.426,1230.373,573.288,1246.117,546.987C1262.088,520.308,1247.238,487.126,1229.565,461.543C1214.572,439.839,1190.223,427.641,1163.845,427.891C1137.931,428.136,1113.486,440.49,1100.243,462.766C1086.705,485.537,1085.642,514.049,1099.033,536.906C1112.286,559.528,1137.688,569.537,1163.845,571.33" fill="rgba(28, 83, 142, 0.4)" class="triangle-float3"></path><path d="M917.3614344868665 169.40420343530542L982.824862727294 324.0359395943182 1073.1957717656035 208.36645077705225z" fill="rgba(28, 83, 142, 0.4)" class="triangle-float3"></path><path d="M1266.199,297.519C1305.37,296.595,1330.848,260.669,1349.545,226.236C1367.147,193.821,1378.093,156.087,1360.643,123.59C1342.375,89.568,1304.802,72.038,1266.199,71.019C1225.552,69.946,1182.778,83.003,1162.704,118.363C1142.821,153.387,1155.61,195.461,1175.756,230.334C1195.891,265.188,1225.958,298.468,1266.199,297.519" fill="rgba(28, 83, 142, 0.4)" class="triangle-float3"></path><path d="M1353.376,711.219C1399.429,709.577,1432.253,670.484,1453.063,629.368C1471.634,592.676,1473.196,550.118,1453.063,514.259C1432.489,477.615,1395.39,452.778,1353.376,451.815C1309.665,450.813,1268.196,472.163,1245.445,509.499C1221.735,548.409,1219.072,596.767,1240.568,636.943C1263.333,679.49,1305.153,712.938,1353.376,711.219" fill="rgba(28, 83, 142, 0.4)" class="triangle-float2"></path></g><defs><mask id="SvgjsMask1000"><rect width="1440" height="560" fill="#ffffff"></rect></mask><style>
            @keyframes float1 {
                0%{transform: translate(0, 0)}
                50%{transform: translate(-10px, 0)}
                100%{transform: translate(0, 0)}
            }

            .triangle-float1 {
                animation: float1 5s infinite;
            }

            @keyframes float2 {
                0%{transform: translate(0, 0)}
                50%{transform: translate(-5px, -5px)}
                100%{transform: translate(0, 0)}
            }

            .triangle-float2 {
                animation: float2 4s infinite;
            }

            @keyframes float3 {
                0%{transform: translate(0, 0)}
                50%{transform: translate(0, -10px)}
                100%{transform: translate(0, 0)}
            }

            .triangle-float3 {
                animation: float3 6s infinite;
            }
        </style></defs></svg>